<?xml version="1.0" standalone="no"?>
<!DOCTYPE svg PUBLIC "-//W3C//DTD SVG 20010904//EN"
 "http://www.w3.org/TR/2001/REC-SVG-20010904/DTD/svg10.dtd">
<svg version="1.0" xmlns="http://www.w3.org/2000/svg"
 width="700.000000pt" height="700.000000pt" viewBox="0 0 700.000000 700.000000"
 preserveAspectRatio="xMidYMid meet">
<metadata>
Created by potrace 1.11, written by Peter Selinger 2001-2013
</metadata>
<g transform="translate(0.000000,700.000000) scale(0.100000,-0.100000)"
fill="#000000" stroke="none">
<path d="M3549 6006 c-2 -3 -39 -7 -81 -11 -42 -3 -87 -8 -100 -10 -13 -3 -48
-9 -78 -15 -91 -17 -100 -19 -184 -40 -161 -42 -330 -106 -488 -186 -739 -372
-1248 -1080 -1362 -1894 -31 -223 -28 -545 8 -755 150 -873 716 -1583 1531
-1920 110 -46 276 -100 353 -115 31 -6 71 -15 87 -20 17 -5 50 -11 75 -14 25
-3 56 -8 70 -11 138 -27 626 -27 730 0 8 2 38 7 65 11 28 3 53 8 56 10 3 2 21
6 40 9 200 35 519 157 734 283 146 85 322 214 439 324 l79 73 -887 888 -888
887 888 887 887 888 -79 73 c-87 81 -294 242 -311 242 -6 0 -13 4 -15 8 -6 15
-179 114 -301 172 -259 122 -490 188 -785 224 -97 12 -474 21 -483 12z"/>
</g>
</svg>
